<?xml version="1.0" encoding="UTF-8"?>
<svg width="375px" height="288px" viewBox="0 0 375 288" version="1.1" xmlns="http://www.w3.org/2000/svg" xmlns:xlink="http://www.w3.org/1999/xlink">
    <title>undraw_mobile_login_ikmv</title>
    <g id="Symbols" stroke="none" stroke-width="1" fill="none" fill-rule="evenodd">
        <g id="Illustrations/sign-up-illustration" fill-rule="nonzero">
            <g id="undraw_mobile_login_ikmv">
                <polygon id="Path" fill="#F0F0F0" points="86.4292204 199.255814 115.513393 153.563651 50.3784318 112.186047 16.7410714 165.03144 70.6158624 199.255814"></polygon>
                <path d="M127.232143,213.488372 L55.2455357,213.488372 L55.2455357,199.255814 L127.232143,199.255814 L127.232143,213.488372 Z M56.1804267,212.570143 L126.297252,212.570143 L126.297252,200.174044 L56.1804267,200.174044 L56.1804267,212.570143 Z" id="Shape" fill="#3F3D56"></path>
                <ellipse id="Oval" fill="#383180" cx="118.44308" cy="206.372093" rx="4.60379464" ry="4.60465116"></ellipse>
                <ellipse id="Oval" fill="#383180" cx="105.887277" cy="206.372093" rx="4.60379464" ry="4.60465116"></ellipse>
                <ellipse id="Oval" fill="#383180" cx="92.4944196" cy="206.372093" rx="4.60379464" ry="4.60465116"></ellipse>
                <ellipse id="Oval" fill="#383180" cx="79.1015625" cy="206.372093" rx="4.60379464" ry="4.60465116"></ellipse>
                <ellipse id="Oval" fill="#383180" cx="66.5457589" cy="206.372093" rx="4.60379464" ry="4.60465116"></ellipse>
                <path d="M213.241647,52.8972243 L213.241647,17.3203301 L231.026786,17.3203301 L231.026786,0 L143.973214,0 L143.973214,87.0697674 L218.389977,87.0697674 L218.389977,78.5567737 C218.389979,75.3518523 219.662896,72.2781972 221.928698,70.0119782 C224.194501,67.7457591 227.267588,66.4726132 230.471913,66.4726182 L231.026786,66.4726182 L231.026786,52.8972243 L213.241647,52.8972243 Z" id="Path" fill="#F0F0F0"></path>
                <rect id="Rectangle" fill="#383180" x="251.116071" y="224.372093" width="57.7566964" height="11.7209302"></rect>
                <rect id="Rectangle" fill="#F0F0F0" x="236.886161" y="164.093023" width="85.3794643" height="10.8837209"></rect>
                <rect id="Rectangle" fill="#3F3D56" x="0" y="287.162791" width="363.28125" height="1"></rect>
                <path d="M336.510821,288 L230.174447,288 C223.251808,287.992071 217.641884,282.401151 217.633929,275.501961 L217.633929,78.6375734 C217.641802,71.7383503 223.251774,66.1473818 230.174447,66.1395349 L336.510821,66.1395349 C343.433494,66.1473818 349.043466,71.7383503 349.051339,78.6375734 L349.051339,275.501961 C349.043383,282.401151 343.43346,287.992071 336.510821,288 L336.510821,288 Z M230.174447,67.0717217 C223.768112,67.0789805 218.576567,72.252939 218.569284,78.6375734 L218.569284,275.501961 C218.576567,281.886596 223.768112,287.060554 230.174447,287.067813 L336.510821,287.067813 C342.917156,287.060554 348.108701,281.886596 348.115984,275.501961 L348.115984,78.6375734 C348.108701,72.252939 342.917156,67.0789805 336.510821,67.0717217 L230.174447,67.0717217 Z" id="Shape" fill="#3F3D56"></path>
                <path d="M270.78683,75.3488372 C269.168809,75.3488372 267.857143,74.0369274 267.857143,72.4186047 C267.857143,70.8002819 269.168809,69.4883721 270.78683,69.4883721 C272.404852,69.4883721 273.716518,70.8002819 273.716518,72.4186047 C273.71475,74.0361944 272.404119,75.3470689 270.78683,75.3488372 L270.78683,75.3488372 Z M270.78683,70.4651163 C269.708149,70.4651163 268.833705,71.3397228 268.833705,72.4186047 C268.833705,73.4974865 269.708149,74.372093 270.78683,74.372093 C271.865512,74.372093 272.739955,73.4974865 272.739955,72.4186047 C272.738806,71.3401993 271.865035,70.4662656 270.78683,70.4651163 Z" id="Shape" fill="#3F3D56"></path>
                <rect id="Rectangle" fill="#3F3D56" x="277.064732" y="72" width="20.9263393" height="1"></rect>
                <path d="M340.680804,79.5348837 L340.680804,117.209302 C319.878052,117.208374 303.014321,100.341506 303.013393,79.5348837 L340.680804,79.5348837 Z" id="Path" fill="#383180"></path>
                <path d="M340.680804,275.44186 L225.167411,275.44186 L225.167411,78.6976744 L340.680804,78.6976744 L340.680804,275.44186 Z M226.102742,274.507209 L339.745472,274.507209 L339.745472,79.6323261 L226.102742,79.6323261 L226.102742,274.507209 Z" id="Shape" fill="#3F3D56"></path>
                <ellipse id="Oval" fill="#000000" opacity="0.1" cx="313.058036" cy="102.139535" rx="12.5558036" ry="12.5581395"></ellipse>
                <ellipse id="Oval" fill="#383180" cx="311.383929" cy="102.976744" rx="12.5558036" ry="12.5581395"></ellipse>
                <rect id="Rectangle" fill="#3F3D56" x="231.026786" y="87.0697674" width="17.578125" height="6.69767442"></rect>
                <rect id="Rectangle" fill="#3F3D56" x="240.234375" y="149.023256" width="17.578125" height="6.69767442"></rect>
                <path d="M326.450893,173.302326 L240.234375,173.302326 L240.234375,161.581395 L326.450893,161.581395 L326.450893,173.302326 Z M241.171511,172.400716 L325.513757,172.400716 L325.513757,162.483005 L241.171511,162.483005 L241.171511,172.400716 Z" id="Shape" fill="#3F3D56"></path>
                <rect id="Rectangle" fill="#F0F0F0" x="236.886161" y="200.093023" width="85.3794643" height="10.8837209"></rect>
                <rect id="Rectangle" fill="#3F3D56" x="240.234375" y="184.186047" width="17.578125" height="6.69767442"></rect>
                <path d="M326.450893,208.465116 L240.234375,208.465116 L240.234375,196.744186 L326.450893,196.744186 L326.450893,208.465116 Z M241.171511,207.563506 L325.513757,207.563506 L325.513757,197.645796 L241.171511,197.645796 L241.171511,207.563506 Z" id="Shape" fill="#3F3D56"></path>
                <path d="M313.058036,233.581395 L254.464286,233.581395 L254.464286,220.186047 L313.058036,220.186047 L313.058036,233.581395 Z M255.394345,232.624585 L312.127976,232.624585 L312.127976,221.142857 L255.394345,221.142857 L255.394345,232.624585 Z" id="Shape" fill="#3F3D56"></path>
                <path d="M323.939732,168.69763 C323.939545,170.639757 322.721314,172.372989 320.894433,173.030314 C319.067552,173.687638 317.024799,173.127732 315.788017,171.630675 L315.783414,171.62607 C314.57879,170.164365 314.392123,168.113753 315.313005,166.458431 C316.233887,164.803109 318.074334,163.880985 319.951018,164.134637 C321.827702,164.388288 323.357527,165.765935 323.806248,167.606371 C323.806222,167.607601 323.806698,167.608787 323.807567,167.609657 C323.808436,167.610526 323.809623,167.611003 323.810851,167.610976 C323.895879,167.966953 323.939132,168.331633 323.939732,168.69763 L323.939732,168.69763 Z" id="Path" fill="#383180"></path>
                <path d="M323.939732,168.593082 C323.939543,170.579305 322.708764,172.351889 320.863067,173.024138 C319.017369,173.696387 316.953576,173.123768 315.704055,171.592721 L315.699405,171.588012 C315.613503,171.223952 315.569805,170.850993 315.569196,170.476686 C315.569386,168.490463 316.800164,166.717879 318.645862,166.04563 C320.49156,165.373381 322.555353,165.946 323.804874,167.477047 C323.804847,167.478304 323.805328,167.479518 323.806206,167.480407 C323.807084,167.481296 323.808282,167.481783 323.809524,167.481756 C323.895428,167.845815 323.939125,168.218775 323.939732,168.593082 L323.939732,168.593082 Z" id="Path" fill="#000000" opacity="0.1"></path>
                <ellipse id="Oval" fill="#383180" cx="321.010045" cy="171.209302" rx="4.60379464" ry="4.60465116"></ellipse>
                <path d="M323.939732,203.860421 C323.939545,205.802548 322.721314,207.53578 320.894433,208.193104 C319.067552,208.850429 317.024799,208.290522 315.788017,206.793466 L315.783414,206.788861 C314.57879,205.327156 314.392123,203.276543 315.313005,201.621222 C316.233887,199.9659 318.074334,199.043776 319.951018,199.297427 C321.827702,199.551079 323.357527,200.928726 323.806248,202.769162 C323.806222,202.770391 323.806698,202.771578 323.807567,202.772447 C323.808436,202.773317 323.809623,202.773793 323.810851,202.773767 C323.895879,203.129744 323.939132,203.494423 323.939732,203.860421 L323.939732,203.860421 Z" id="Path" fill="#383180"></path>
                <path d="M323.939732,203.755873 C323.939543,205.742095 322.708764,207.514679 320.863067,208.186928 C319.017369,208.859177 316.953576,208.286558 315.704055,206.755511 L315.699405,206.750802 C315.613503,206.386743 315.569805,206.013783 315.569196,205.639476 C315.569386,203.653254 316.800164,201.88067 318.645862,201.20842 C320.49156,200.536171 322.555353,201.10879 323.804874,202.639838 C323.804847,202.641095 323.805328,202.642308 323.806206,202.643197 C323.807084,202.644086 323.808282,202.644574 323.809524,202.644547 C323.895428,203.008606 323.939125,203.381565 323.939732,203.755873 L323.939732,203.755873 Z" id="Path" fill="#000000" opacity="0.1"></path>
                <ellipse id="Oval" fill="#383180" cx="321.010045" cy="206.372093" rx="4.60379464" ry="4.60465116"></ellipse>
                <rect id="Rectangle" fill="#F0F0F0" x="218.470982" y="22.6046512" width="24.2745536" height="24.2790698"></rect>
                <path d="M313.476562,40.1860465 C310.471665,40.1860465 308.035714,37.7496426 308.035714,34.744186 C308.035714,31.7387295 310.471665,29.3023256 313.476562,29.3023256 C316.48146,29.3023256 318.917411,31.7387295 318.917411,34.744186 C318.914055,37.7482512 316.480069,40.1826901 313.476562,40.1860465 L313.476562,40.1860465 Z M313.476562,30.2093023 C310.972481,30.2093023 308.942522,32.2396389 308.942522,34.744186 C308.942522,37.2487332 310.972481,39.2790698 313.476562,39.2790698 C315.980644,39.2790698 318.010603,37.2487332 318.010603,34.744186 C318.007739,32.2408262 315.979457,30.2121663 313.476562,30.2093023 L313.476562,30.2093023 Z" id="Shape" fill="#3F3D56"></path>
                <path d="M190.011161,118.046512 L177.455357,118.046512 L177.455357,106.325581 L190.011161,106.325581 L190.011161,118.046512 Z M178.421188,117.144902 L189.04533,117.144902 L189.04533,107.227191 L178.421188,107.227191 L178.421188,117.144902 Z" id="Shape" fill="#3F3D56"></path>
                <path d="M375,208.465116 L362.444196,208.465116 L362.444196,196.744186 L375,196.744186 L375,208.465116 Z M363.410027,207.563506 L374.034169,207.563506 L374.034169,197.645796 L363.410027,197.645796 L363.410027,207.563506 Z" id="Shape" fill="#3F3D56"></path>
                <path d="M135.602679,127.022205 L137.683502,128.14514 L144.763946,131.968683 L156.194584,138.139535 L162.856037,125.755855 C164.123102,123.405856 164.405256,120.64739 163.640281,118.088721 C162.875305,115.530052 161.126029,113.381324 158.778181,112.11635 C153.681005,109.358451 147.389759,110.213729 143.210272,114.232765 L143.206779,114.236265 C142.204554,115.200749 141.35878,116.316121 140.700021,117.542078 L135.602679,127.022205 Z" id="Path" fill="#2F2E41"></path>
                <polygon id="Path" fill="#FFB8B8" points="166.573661 253.406756 165.188416 268.878252 159.992592 269.581395 156.529018 252"></polygon>
                <path d="M159.00662,269.721081 C159.00662,269.721081 165.685987,266.165437 167.092171,269.009951 C167.092171,269.009951 166.037533,277.543499 170.256081,278.610199 C174.47463,279.676898 176.232356,287.143741 170.256081,287.854871 C164.279807,288.566001 160.412804,286.432616 158.303528,286.432616 C156.194251,286.432616 158.303528,278.965763 158.303528,278.965763 L159.00662,269.721081 Z" id="Path" fill="#2F2E41"></path>
                <polygon id="Path" fill="#FFB8B8" points="124.720982 253.406756 126.106689 268.878252 131.302051 269.581395 134.765625 252"></polygon>
                <path d="M132.288034,269.721081 C132.288034,269.721081 125.608639,266.165437 124.202482,269.009952 C124.202482,269.009952 125.257116,277.5435 121.038564,278.610199 C116.820012,279.676899 115.062285,287.143742 121.038564,287.854872 C127.014843,288.566002 130.881877,286.432598 132.991127,286.432598 C135.100377,286.432598 132.991127,278.965745 132.991127,278.965745 L132.288034,269.721081 Z" id="Path" fill="#2F2E41"></path>
                <ellipse id="Oval" fill="#FFB8B8" cx="153.180804" cy="121.395349" rx="9.20758929" ry="9.20930233"></ellipse>
                <path d="M123.883929,138.976725 L131.234211,150.352941 L139.984544,149.663473 L154.335095,150.697674 C154.335095,150.697674 155.689645,148.029443 156.795702,145.433591 C157.401244,144.137279 157.866971,142.781949 158.185229,141.389874 C158.535243,138.976743 153.635053,136.563612 153.635053,136.563612 C153.635053,136.563612 153.44253,136.529126 153.120545,136.453293 C152.693541,136.353327 152.03547,136.187842 151.314464,135.946524 C149.686895,135.401861 147.730308,134.477979 147.334812,133.11628 C146.634785,130.703144 151.884988,127.255812 151.884988,127.255812 L145.584748,121.395349 C145.584748,121.395349 139.988037,129.05185 133.190802,130.796208 C132.796697,130.898773 132.397025,130.979333 131.993696,131.037503 C131.972717,131.040952 131.955245,131.04441 131.93422,131.047855 C124.583952,132.082061 123.883929,138.976725 123.883929,138.976725 Z" id="Path" fill="#FFB8B8"></path>
                <path d="M127.478155,135.627907 L123.686574,138.756868 C123.686574,138.756868 120.584367,153.706353 121.618436,157.878303 C122.652505,162.050253 121.273746,165.874535 121.273746,166.569861 C121.273746,167.265186 118.171544,193.339888 118.171544,193.339888 C118.171544,193.339888 111.96714,207.246384 118.516234,205.855733 C125.065328,204.465081 122.652505,190.55859 122.652505,190.55859 L130.580357,166.222235 L130.580357,145.710116 L127.478155,135.627907 Z" id="Path" fill="#FFB8B8"></path>
                <path d="M155.444791,138.139535 L158.29864,140.245029 L159.725574,169.721981 L170.427564,194.987938 C170.427564,194.987938 178.275691,207.269994 173.281413,207.620919 C168.287135,207.971845 165.07659,194.987938 165.07659,194.987938 L155.444791,170.77473 L154.017857,147.263355 L155.444791,138.139535 Z" id="Path" fill="#FFB8B8"></path>
                <path d="M137.747453,140.651163 C137.747453,140.651163 144.766538,145.559832 155.997075,143.806739 C155.997075,143.806739 159.155663,150.117881 157.40089,153.624072 C155.646116,157.130262 159.506618,165.545122 160.208509,166.596976 C160.910399,167.64883 168.982363,189.387218 171.789996,212.87868 C174.597629,236.370142 182.318628,252.498637 175.650493,254.602349 C168.982358,256.706062 155.295147,259.160398 153.891328,257.056686 C152.487509,254.952973 150.381786,202.710723 150.381786,202.710723 L146.521289,222.696013 C146.521289,222.696013 151.785605,256.706057 147.925108,257.407301 C144.06461,258.108545 119.848767,256.004827 120.550672,251.797397 C121.252577,247.589968 128.271667,225.500965 128.271667,225.500965 C128.271667,225.500965 127.920712,181.322959 134.93982,172.908104 C134.93982,172.908104 137.747439,168.350055 133.886956,162.389527 C130.026473,156.429 130.377414,146.962291 130.377414,146.962291 C130.377414,146.962291 133.185047,146.96231 137.747453,140.651163 Z" id="Path" fill="#2F2E41"></path>
                <polygon id="Path" fill="#2F2E41" points="132.254464 130.853152 138.341541 144 139.787946 143.290065 133.491204 130.604651"></polygon>
                <path d="M151.506696,135.627907 L156.232352,145.674419 L157.366071,145.576805 L156.980675,143.866847 L153.437379,136.159346 C152.980916,136.054513 152.277445,135.880972 151.506696,135.627907 Z" id="Path" fill="#2F2E41"></path>
                <path d="M137.54349,128.213617 C138.244258,130.435119 140.227943,132.026341 142.5776,132.251752 C144.927257,132.477162 147.185143,131.292847 148.307565,129.24625 C143.798777,123.436883 147.665981,119.787614 154.990546,117.026925 C156.118936,114.963131 155.869677,112.431968 154.359665,110.620475 C150.270769,110.105135 146.164409,111.437189 143.185688,114.245179 L143.182122,114.248693 L137.978364,123.760035 C137.229625,125.125956 137.072795,126.73207 137.54349,128.213617 L137.54349,128.213617 Z" id="Path" fill="#2F2E41"></path>
                <ellipse id="Oval" fill="#FFB8B8" cx="147.739955" cy="121.813953" rx="1.25558036" ry="2.09302326"></ellipse>
                <path d="M151.506696,118.327073 L162.117514,123.069767 L164.0625,118.835473 C163.72739,117.287907 163.02583,115.840525 162.015159,114.611617 L154.711872,111.348837 L151.506696,118.327073 Z" id="Path" fill="#2F2E41"></path>
                <ellipse id="Oval" fill="#383180" cx="176.199777" cy="208.046512" rx="4.60379464" ry="4.60465116"></ellipse>
                <ellipse id="Oval" fill="#FF6584" cx="26.3671875" cy="237.348837" rx="2.9296875" ry="2.93023256"></ellipse>
                <rect id="Rectangle" fill="#3F3D56" x="41.015625" y="252.837209" width="1" height="34.3255814"></rect>
                <ellipse id="Oval" fill="#3F3D56" cx="41.8526786" cy="252.837209" rx="5.02232143" ry="5.02325581"></ellipse>
                <path d="M41.8526786,274.604651 C41.8526786,274.604651 41.1518895,259.607028 26.7857143,261.350299" id="Path" fill="#3F3D56"></path>
            </g>
        </g>
    </g>
</svg>